<svg xmlns="http://www.w3.org/2000/svg" viewBox="0 0 142.89 122.44"><defs><style>.cls-1{fill:#3a3a3a;}</style></defs><g id="Calque_2" data-name="Calque 2"><g id="Calque_1-2" data-name="Calque 1"><path class="cls-1" d="M50.25,122.44c.31-2.66.6-5.32.93-8s.67-5.48,1.12-8.2c.47-2.89,1-5.77,1.63-8.64q1.08-5,2.33-10c1.57-6.16,3.23-12.29,4.82-18.44.89-3.43,1.78-6.87,2.57-10.32a4.29,4.29,0,0,1,3.93-3.66,55.65,55.65,0,0,1,6.32.1h1.32c.17-.65.37-1.3.5-2a.83.83,0,0,0-.19-.61c-.79-1.08-1.58-2.16-2.43-3.2a1,1,0,0,0-.84-.28c-.72.16-1.4.48-2.12.65A11.11,11.11,0,0,1,68.5,50l-.21-.33,2.16-3.4c-2-.52-4.19.07-6.24-1.26l3.47-3.11L60,37.38V37c1.19-.63,2.37-1.29,3.58-1.88S66,34,67.4,33.33L56.83,27.42v-.3c3.79-1.35,7.44-3.12,11.54-4-.71-1.26-1.46-2.52-2.15-3.83-1-1.89-1.94-3.8-2.89-5.71a2,2,0,0,1-.06-.65,2.29,2.29,0,0,1,.64,0c2.43.53,4.84,1.11,7.28,1.61a6.3,6.3,0,0,0,1.89,0,.83.83,0,0,0,.55-.53A25.38,25.38,0,0,0,74.15,10c0-2.52-.2-5-.33-7.54,0-.62-.14-1.24-.16-1.86a.87.87,0,0,1,.26-.6c.07,0,.39.08.53.2C76,1.64,77.63,3,79.15,4.54a8.29,8.29,0,0,1,1.28,2c.09.15-.05.5-.18.69-.42.66-.89,1.28-1.35,1.92s-.44,1,.19,1.46c.24.17.42.43.66.62,1,.84,1,1.07.08,2-.62.65-1.24,1.3-.55,2.32-.52.31-1,.59-1.48.89-3.33,2.14-5.69,5-6.35,9-.49,3.05-1,6.11-1.42,9.17-.14,1-.14,1.94-.2,2.92l.28.07a4.31,4.31,0,0,0,.27-.76c.61-4,1.09-8.13,1.85-12.15.65-3.39,2.85-5.78,5.68-7.66,1.74-1.15,3.74-1.19,5.66-1.56,3.55-.68,6.4.7,8.89,3.08A6.89,6.89,0,0,1,93.29,20a19.17,19.17,0,0,0-3.17-2.75,10.15,10.15,0,0,0-3.77-1A11.68,11.68,0,0,0,79.9,17,11.76,11.76,0,0,0,75,21.89a20.21,20.21,0,0,0-2.16,7.36c-.39,2.36-.62,4.75-.9,7.13a2,2,0,0,0,.15.64l.3,0c.09-.56.21-1.13.26-1.7a41,41,0,0,1,2-11.39,10.48,10.48,0,0,1,5.7-6.49,7.42,7.42,0,0,1,2.39-.63c2.39-.13,4.86-.34,7,.94a15,15,0,0,1,2.59,2.52c.32.32.63.65.95,1a5.61,5.61,0,0,0,.29-1.31c0-1.31-1-2-1.9-2.75-.46-.37-1-.68-1.47-1,1.16-.78,1.1-.76.65-2a4.38,4.38,0,0,1-.15-1.94c.09-.74.82-.91,2.13-.58v4.66l6.83-1.8L95.24,24.59l5,1.9c.06.62-.33,1-3.51,3.19a5.63,5.63,0,0,1-.49,5,4.21,4.21,0,0,1-.28.45c-.83,1-.78,1.39.28,2.13s1.13.79.14,1.76a4.87,4.87,0,0,1-1,.78c-1.25.66-1.25.64-1.56,2a2.73,2.73,0,0,0,.56.42c1.83.73,2.1,2.23,1.9,3.9a3.64,3.64,0,0,1-.64,1.54,9.88,9.88,0,0,1-4.81,4.2,6.62,6.62,0,0,0-2.13,1.71A7.24,7.24,0,0,1,84,55.44a3.36,3.36,0,0,0-.94.41l.09.34a26.47,26.47,0,0,0,3,.38,6.52,6.52,0,0,1,3.93,1.66q4.13,3.1,8.22,6.25a6.4,6.4,0,0,1,.85,1.07c.85-1.39,1.57-2.56,2.28-3.74,1.12-1.85,2.22-3.71,3.34-5.56.24-.4.4-.82-.15-1-2.09-.75-2.41-2.59-2.81-4.41a2.21,2.21,0,0,1,1-2.6c.25-.16.36-.59.47-.92.15-.51.22-1.05.39-1.55a2,2,0,0,1,2.52-1.39c1.15.26,1.56-.11,1.63-1.26.15-2.44.32-4.89.57-7.32a2.51,2.51,0,0,1,.77-1.36.67.67,0,0,1,1.22.35,20.55,20.55,0,0,1,.19,2.94c.06,1.78,0,3.57.17,5.35,0,.51-.29,1.25.48,1.58l.56.25a4.58,4.58,0,0,1,2.12,7c-1.23,1.61-2.45,3.23-3.72,4.81-.72.91-.75,1.15.06,2a2.81,2.81,0,0,1,.28,3.17c-.9,1.32-1.81,2.64-2.7,4s-1.74,2.6-2.63,4l5.05,3.87c1.15.88,2.34,1.73,3.46,2.64.47.38.76.26,1-.13,1.42-1.94,2.82-3.89,4.23-5.83l8.9-12.34c1.13-1.56,2.23-3.15,3.43-4.65.73-.91.63-2,.94-3,0-.08,0-.19,0-.26.57-1.18.43-1.93-.86-2.71-1.12-.69-1-2.78-.22-3.73,1.06-1.34,2.72-1.62,4-2.58a8.5,8.5,0,0,1,2.55-.81,18,18,0,0,1-.2-1.8,16.87,16.87,0,0,1,.89-6c.19-.57.48-.87,1.11-.76s.59.53.6,1c0,2.13.09,4.26.18,6.39a2.66,2.66,0,0,0,1.2,2.41,2.79,2.79,0,0,1,.92,3.91c-1.65,2.72-3.38,5.4-5.11,8.06-.31.46-.49.79-.18,1.34a5.48,5.48,0,0,1,.6,1.76,1.65,1.65,0,0,1-.27,1.14c-3.08,4.25-6.16,8.5-9.3,12.7-2.41,3.24-4.91,6.41-7.37,9.61-1,1.24-2,2.42-2.89,3.71a3.54,3.54,0,0,1-5.37.36c-1.62-1.52-3.48-2.78-5.21-4.19s-3.53-2.91-5.3-4.37a1.71,1.71,0,0,0-.33-.18c-.82,1.3-1.63,2.6-2.46,3.89q-2.79,4.33-5.6,8.65a3.06,3.06,0,0,1-4.63.48l-4-4a12.55,12.55,0,0,0-1.73,4.94c-.28,2.6-.7,5.18-1,7.76-.26,2-.49,4-.75,6-.23,1.82-.49,3.64-.7,5.47a25,25,0,0,0-.19,2.86c0,3.68,0,7.36,0,11H76.31c-.19-3.11-.4-6.21-.55-9.32-.07-1.34,0-2.69,0-3.91-1,0-1.85,0-2.73,0-.63,0-1,.31-1,1.08a10.23,10.23,0,0,1,0,2.07.78.78,0,0,1-.48.58c-1.16.12-2.33.14-3.5.22-.62,0-.77-.26-.75-.81,0-.9,0-1.79,0-2.84H62.77c-.18,1.14-.41,2.3-.57,3.47a35.16,35.16,0,0,1-2.54,9.45ZM89,65.65c-.09.18-.19.35-.26.53-.55,1.62-1.06,3.26-1.66,4.86a2.59,2.59,0,0,0,0,2.57c.51.81,0,1.29-.76,1.47l4.23,4.23a.48.48,0,0,0,.16-.14c1.58-2.54,3.15-5.09,4.74-7.62.26-.42.06-.65-.23-.89ZM87.29,50.36v-.09h.27a7.82,7.82,0,0,0,6.83-3.9,1.43,1.43,0,0,0-.18-1.81,1.66,1.66,0,0,0-1.43-.13c-1,.35-1.94.91-2.93,1.31a6,6,0,0,1-1.79.45A10.63,10.63,0,0,1,81.12,44,1.66,1.66,0,0,0,79,43.81a2.25,2.25,0,0,0-.78,2.48c.74,2,2.55,2.93,4.38,3.5A25.07,25.07,0,0,0,87.29,50.36ZM84.24,33.11c-1-.1-1.1,0-1,1h1ZM94.8,34.46a3.36,3.36,0,0,0-.58-.84c-.15-.11-.44,0-.71,0l0,.83Z"/><path class="cls-1" d="M7.73,122.44a2.27,2.27,0,0,0,0-.35c.07-3,0-6,.22-8.93a32.27,32.27,0,0,0-1.35-10.44,11.49,11.49,0,0,1,.68-8.61A21.5,21.5,0,0,1,8.81,92c-1.43-1.23-2.87-2.34-4.14-3.62A5.76,5.76,0,0,0,2,86.58,2.7,2.7,0,0,1,.11,84.24a5.26,5.26,0,0,1,.44-3.31,4.11,4.11,0,0,0-.2-1.83A17.85,17.85,0,0,1,.85,72a19.49,19.49,0,0,1,4.53-8.49,15.35,15.35,0,0,1,9-4.71,19.44,19.44,0,0,1,6.89.25,12.57,12.57,0,0,1,6.18,3.49,7.25,7.25,0,0,1,2.27,3.08c.14.43.89.8,1.43.94,2.38.6,3.37,3,3.48,5.07a7.94,7.94,0,0,1-.6,3.66,5.13,5.13,0,0,0-.12,2.32c.36,4.2-1.22,7.68-3.89,10.75a23.17,23.17,0,0,1-2.19,2.13c-.41.36-.48.6-.07,1a30.74,30.74,0,0,1,6.48,9.17c1,2.18,1.78,4.52,2.61,6.8.08.23-.16.57-.29,1l.78,1.53c.75-1.7,1.43-3.24,2.08-4.78.54-1.27,1.07-2.53,1.52-3.82a4.46,4.46,0,0,0,0-1.32c0-.72,0-1.44,0-2.16a1.12,1.12,0,0,0-.23-.73,4.46,4.46,0,0,1-1.08-2.86.92.92,0,0,1,.26-.74c.51-.38,1.13-.61,1.64-1a1.29,1.29,0,0,1,1.69-.19c.49.31,1,.06,1.09-.63.15-.93.35-1.87.55-2.8a1.9,1.9,0,0,1,.28-.84,7.32,7.32,0,0,1,1-.86c.17.35.48.71.48,1.07a18,18,0,0,1-.23,3,2.31,2.31,0,0,0,.67,2.51,2,2,0,0,1,.63,2.57c-.9,2-1.83,4-2.63,6-1.68,4.29-3.26,8.63-4.93,12.94a12,12,0,0,1-1.61,3.24,2.29,2.29,0,0,1-3.91-.86c-.61-1.65-1.26-3.28-1.92-4.91-.08-.22-.31-.56-.46-.55-.76,0-.92-.52-1.19-1-.74-1.34-1.51-2.68-2.4-4,0,.66.06,1.31.11,2l.72,8.56.42,4.62ZM1.46,80l.31,0a5.88,5.88,0,0,0,.1-.93c0-.36-.1-.71-.13-1.06a12.54,12.54,0,0,1,1.09-6c1-2.36,1.87-4.85,4-6.51a41.79,41.79,0,0,1,4.53-3.17A9.7,9.7,0,0,1,14.85,61a31.22,31.22,0,0,1,5.72,0,10.25,10.25,0,0,1,4.29,1.37A16.28,16.28,0,0,1,28.7,65.5a2,2,0,0,0,.62.32,10.9,10.9,0,0,0-4.95-4.44,11,11,0,0,0-4.87-1.09,22.4,22.4,0,0,0-5.26.21,17.29,17.29,0,0,0-4.88,2.39,13.69,13.69,0,0,0-5.18,5c-.7,1.35-1.36,2.74-2,4.14A12.62,12.62,0,0,0,1.46,80ZM18,73.57H16.65c-.13.59,0,.91.61.92S18.15,74.26,18,73.57Zm11.87-1.28-.13.24a2.42,2.42,0,0,0,.84.46c.18,0,.39-.33.58-.52L31,72.29Z"/><path class="cls-1" d="M63.47,122.44c-.07-2.55-.07-2.55,2.43-2.55h3.36v2.55Z"/><path class="cls-1" d="M81.17,6.55l4.58,5.94L90.93,3a21.52,21.52,0,0,1,1.94,7.91,2.3,2.3,0,0,1-.52.14c-1.7.14-2.39,1.1-2,2.77,0,.09.08.17.1.25.06.47.33,1.08.14,1.36-.41.59-1.05.41-1.69.13-2.66-1.21-5.37-.72-8.07-.12l-1.2.23a1.22,1.22,0,0,1,0-1.72c.25-.3.54-.57.79-.87a1.13,1.13,0,0,0-.13-1.8c-.12-.1-.26-.16-.38-.25-1.18-.88-1.21-1.15-.35-2.31C80.12,8,80.6,7.34,81.17,6.55Z"/></g></g></svg>